<svg width="24" height="24" viewBox="0 0 24 24" fill="none" xmlns="http://www.w3.org/2000/svg">
  <defs>
    <linearGradient id="s" x1="4" y1="3" x2="20" y2="21" gradientUnits="userSpaceOnUse">
      <stop offset="0" stop-color="#3aec96"/>
      <stop offset="1" stop-color="#0fae61"/>
    </linearGradient>
  </defs>
  <rect x="3.06" y="3.89" width="1.28" height="1.28" rx="0.32" fill="url(#s)"/>
  <rect x="4.72" y="3.89" width="1.28" height="1.28" rx="0.32" fill="url(#s)"/>
  <rect x="18.00" y="3.89" width="1.28" height="1.28" rx="0.32" fill="url(#s)"/>
  <rect x="19.66" y="3.89" width="1.28" height="1.28" rx="0.32" fill="url(#s)"/>
  <rect x="3.06" y="5.55" width="1.28" height="1.28" rx="0.32" fill="url(#s)"/>
  <rect x="4.72" y="5.55" width="1.28" height="1.28" rx="0.32" fill="url(#s)"/>
  <rect x="6.38" y="5.55" width="1.28" height="1.28" rx="0.32" fill="url(#s)"/>
  <rect x="16.34" y="5.55" width="1.28" height="1.28" rx="0.32" fill="url(#s)"/>
  <rect x="18.00" y="5.55" width="1.28" height="1.28" rx="0.32" fill="url(#s)"/>
  <rect x="19.66" y="5.55" width="1.28" height="1.28" rx="0.32" fill="url(#s)"/>
  <rect x="4.72" y="7.21" width="1.28" height="1.28" rx="0.32" fill="url(#s)"/>
  <rect x="6.38" y="7.21" width="1.28" height="1.28" rx="0.32" fill="url(#s)"/>
  <rect x="8.04" y="7.21" width="1.28" height="1.28" rx="0.32" fill="url(#s)"/>
  <rect x="14.68" y="7.21" width="1.28" height="1.28" rx="0.32" fill="url(#s)"/>
  <rect x="16.34" y="7.21" width="1.28" height="1.28" rx="0.32" fill="url(#s)"/>
  <rect x="18.00" y="7.21" width="1.28" height="1.28" rx="0.32" fill="url(#s)"/>
  <rect x="6.38" y="8.87" width="1.28" height="1.28" rx="0.32" fill="url(#s)"/>
  <rect x="8.04" y="8.87" width="1.28" height="1.28" rx="0.32" fill="url(#s)"/>
  <rect x="9.70" y="8.87" width="1.28" height="1.28" rx="0.32" fill="url(#s)"/>
  <rect x="13.02" y="8.87" width="1.28" height="1.28" rx="0.32" fill="url(#s)"/>
  <rect x="14.68" y="8.87" width="1.28" height="1.28" rx="0.32" fill="url(#s)"/>
  <rect x="16.34" y="8.87" width="1.28" height="1.28" rx="0.32" fill="url(#s)"/>
  <rect x="8.04" y="10.53" width="1.28" height="1.28" rx="0.32" fill="url(#s)"/>
  <rect x="9.70" y="10.53" width="1.28" height="1.28" rx="0.32" fill="url(#s)"/>
  <rect x="11.36" y="10.53" width="1.28" height="1.28" rx="0.32" fill="url(#s)"/>
  <rect x="13.02" y="10.53" width="1.28" height="1.28" rx="0.32" fill="url(#s)"/>
  <rect x="14.68" y="10.53" width="1.28" height="1.28" rx="0.32" fill="url(#s)"/>
  <rect x="9.70" y="12.19" width="1.28" height="1.28" rx="0.32" fill="url(#s)"/>
  <rect x="11.36" y="12.19" width="1.28" height="1.28" rx="0.32" fill="url(#s)"/>
  <rect x="13.02" y="12.19" width="1.28" height="1.28" rx="0.32" fill="url(#s)"/>
  <rect x="11.36" y="13.85" width="1.28" height="1.28" rx="0.32" fill="url(#s)"/>
  <rect x="11.36" y="15.51" width="1.28" height="1.28" rx="0.32" fill="url(#s)"/>
  <rect x="11.36" y="17.17" width="1.28" height="1.28" rx="0.32" fill="url(#s)"/>
  <rect x="9.70" y="18.83" width="1.28" height="1.28" rx="0.32" fill="url(#s)"/>
  <rect x="11.36" y="18.83" width="1.28" height="1.28" rx="0.32" fill="url(#s)"/>
  <rect x="13.02" y="18.83" width="1.28" height="1.28" rx="0.32" fill="url(#s)"/>
  <rect x="9.70" y="20.49" width="1.28" height="1.28" rx="0.32" fill="url(#s)"/>
  <rect x="11.36" y="20.49" width="1.28" height="1.28" rx="0.32" fill="url(#s)"/>
  <rect x="13.02" y="20.49" width="1.28" height="1.28" rx="0.32" fill="url(#s)"/>
</svg>
